<?xml version="1.0" encoding="UTF-8"?>
<mxfile host="app.diagrams.net" modified="2025-10-23T11:04:39.261497Z" agent="python-user-visible" version="22.1.0" type="device">

  <diagram id="Network_Segmentation_v1" name="Network_Segmentation_v1">
    <mxGraphModel dx="1280" dy="720" grid="1" gridSize="10" guides="1" tooltips="1" connect="1" arrows="1" fold="1" page="1" pageScale="1" pageWidth="1920" pageHeight="1080" background="#ffffff">
      <root>
        <mxCell id="0"/><mxCell id="1" parent="0"/>
        <mxCell id="zoneOffice" value="Office Network (NGFW + VLANs)" style="rounded=1;whiteSpace=wrap;html=1;strokeColor:#ef6c00;fillColor:#fff3e0;" vertex="1" parent="1"><mxGeometry x="40" y="40" width="880" height="520" as="geometry"/></mxCell><mxCell id="ngfw" value="NGFW/IPS + DNS Filter" style="shape=process;whiteSpace=wrap;html=1;strokeColor:#ef6c00;fillColor:#ffe0b2;" vertex="1" parent="1"><mxGeometry x="80" y="80" width="220" height="60" as="geometry"/></mxCell><mxCell id="vlanStaff" value="VLAN: Staff (802.1X)" style="rounded=1;whiteSpace=wrap;html=1;strokeColor:#ef6c00;fillColor:#fffaf3;" vertex="1" parent="1"><mxGeometry x="340" y="70" width="240" height="140" as="geometry"/></mxCell><mxCell id="vlanGuest" value="VLAN: Guest (Internet‑only)" style="rounded=1;whiteSpace=wrap;html=1;strokeColor:#ef6c00;fillColor:#fffaf3;" vertex="1" parent="1"><mxGeometry x="340" y="240" width="240" height="140" as="geometry"/></mxCell><mxCell id="vlanIoT" value="VLAN: IoT/Printers (No east‑west)" style="rounded=1;whiteSpace=wrap;html=1;strokeColor:#ef6c00;fillColor:#fffaf3;" vertex="1" parent="1"><mxGeometry x="340" y="410" width="240" height="140" as="geometry"/></mxCell><mxCell id="internet" value="Internet" style="rounded=1;whiteSpace=wrap;html=1;strokeColor:#999;fillColor:#f7f7f7;" vertex="1" parent="1"><mxGeometry x="660" y="80" width="220" height="60" as="geometry"/></mxCell><mxCell id="remoteUser" value="Remote User" style="shape=ellipse;whiteSpace=wrap;html=1;strokeColor:#666;fillColor:#fff;" vertex="1" parent="1"><mxGeometry x="720" y="620" width="180" height="60" as="geometry"/></mxCell><mxCell id="ztna" value="ZTNA/VPN" style="shape=process;whiteSpace=wrap;html=1;strokeColor:#6a1b9a;fillColor:#ead7f7;" vertex="1" parent="1"><mxGeometry x="480" y="620" width="200" height="60" as="geometry"/></mxCell><mxCell id="net1" edge="1" parent="1" source="vlanStaff" target="ngfw" value="6" style="endArrow=classic;strokeColor=#ef6c00;"><mxGeometry relative="1" as="geometry"/></mxCell><mxCell id="net2" edge="1" parent="1" source="vlanGuest" target="ngfw" value="6" style="endArrow=classic;strokeColor=#ef6c00;"><mxGeometry relative="1" as="geometry"/></mxCell><mxCell id="net3" edge="1" parent="1" source="vlanIoT" target="ngfw" value="6" style="endArrow=classic;strokeColor=#ef6c00;"><mxGeometry relative="1" as="geometry"/></mxCell><mxCell id="net4" edge="1" parent="1" source="ngfw" target="internet" value="6" style="endArrow=classic;strokeColor=#ef6c00;"><mxGeometry relative="1" as="geometry"/></mxCell><mxCell id="net5" edge="1" parent="1" source="remoteUser" target="ztna" value="5" style="dashed=1;endArrow=classic;strokeColor=#6a1b9a;"><mxGeometry relative="1" as="geometry"/></mxCell><mxCell id="net6" edge="1" parent="1" source="ztna" target="vlanStaff" value="5" style="dashed=1;endArrow=classic;strokeColor=#6a1b9a;"><mxGeometry relative="1" as="geometry"/></mxCell>
      </root>
    </mxGraphModel>
  </diagram>

</mxfile>
